<?xml version="1.0" encoding="UTF-8" standalone="no"?>
<svg
   viewBox="0 0 19.994211 16"
   version="1.1"
   id="svg834"
   width="19.994211"
   height="16"
   fill="#ffffff"
   xmlns="http://www.w3.org/2000/svg"
   xmlns:svg="http://www.w3.org/2000/svg">
  <defs
     id="defs838" />
  <!--! Font Awesome Pro 6.3.0 by @fontawesome - https://fontawesome.com License - https://fontawesome.com/license (Commercial License) Copyright 2023 Fonticons, Inc. -->
  <path
     d="M 12.271624,0.03918315 C 11.740486,-0.11390948 11.187478,0.19540012 11.034386,0.72653783 L 7.0352313,14.723578 c -0.1530926,0.531138 0.156217,1.084146 0.6873547,1.237239 0.5311377,0.153092 1.0841457,-0.156217 1.2372384,-0.687355 L 12.958979,1.2764216 C 13.112071,0.74528386 12.802762,0.19227578 12.271624,0.03918315 Z m 2.518218,3.75233165 c -0.390543,0.3905424 -0.390543,1.0247833 0,1.4153257 L 17.579877,8 l -2.79316,2.793159 c -0.390542,0.390543 -0.390542,1.024784 0,1.415326 0.390543,0.390543 1.024784,0.390543 1.415326,0 l 3.49926,-3.49926 c 0.390543,-0.3905424 0.390543,-1.0247833 0,-1.4153257 l -3.49926,-3.4992602 c -0.390542,-0.3905424 -1.024783,-0.3905424 -1.415326,0 z m -9.5823493,0 c -0.3905424,-0.3905424 -1.0247833,-0.3905424 -1.4153257,0 L 0.29290682,7.2907749 c -0.39054243,0.3905425 -0.39054243,1.0247834 0,1.4153258 L 3.792167,12.205361 c 0.3905424,0.390542 1.0247833,0.390542 1.4153257,0 0.3905425,-0.390543 0.3905425,-1.024783 0,-1.415326 L 2.4143333,8 5.2074927,5.2068405 c 0.3905425,-0.3905424 0.3905425,-1.0247833 0,-1.4153257 z"
     id="path832"
     style="stroke-width:0.0312434" />
</svg>
